# xmcd
#
# Track frame offsets: 
#        150
#        13348
#        35751
#        53702
#
# Disc length: 932 seconds
#
# Revision: 0
# Processed by: cddbd v1.5.2PL0 Copyright (c) Steve Scherf et al.
# Submitted via: ExactAudioCopy v0.99pb2
#
DISCID=3003a204
DTITLE=Jann Arden - Good Mother (EP)
DYEAR=2008
DGENRE=Pop
TTITLE0=Ode to a Friend
TTITLE1=Good Mother
TTITLE2=In Your Kooping
TTITLE3=The Right Road Home
EXTD=
EXTT0=
EXTT1=
EXTT2=
EXTT3=
PLAYORDER=
